<svg xmlns="http://www.w3.org/2000/svg" viewBox="0 0 217.33 50.73"><defs><style>.cls-1{fill:#555;stroke:#555;stroke-miterlimit:10;stroke-width:2px;}</style></defs><title>アセット 1</title><g id="レイヤー_2" data-name="レイヤー 2"><g id="レイヤー_1-2" data-name="レイヤー 1"><path class="cls-1" d="M1.31,49.23l1.05-2.71A16.89,16.89,0,0,0,9.22,47.9a12.8,12.8,0,0,0,8.26-3A18.17,18.17,0,0,0,21.16,41a38.32,38.32,0,0,0,3.18-5.84l.28-.56a11.11,11.11,0,0,1-4.31-5.08,20.21,20.21,0,0,1-1.39-8,27.64,27.64,0,0,1,1-7.12,32.42,32.42,0,0,1,2.81-7.12A17,17,0,0,1,26,2.67,5,5,0,0,1,29.33,1q2.11,0,3.23,2.53a18.3,18.3,0,0,1,1.13,7.21,44.38,44.38,0,0,1-.79,7.89,64.56,64.56,0,0,1-2.23,8.7,45.3,45.3,0,0,1-3,7.28,6,6,0,0,0,2.14.39,7.85,7.85,0,0,0,2.36-.39l-.32.95a7.75,7.75,0,0,1-2.25.28A10.73,10.73,0,0,1,27,35.56a36.08,36.08,0,0,1-6.17,8,22,22,0,0,1-7.24,4.66A23.7,23.7,0,0,1,5,49.73,12,12,0,0,1,1.31,49.23ZM25.15,33.48a52.63,52.63,0,0,0,2.6-7.95q1.34-5,2.25-10.32a51.52,51.52,0,0,0,.91-8.1,9.61,9.61,0,0,0-.56-3.69,1.82,1.82,0,0,0-1.69-1.3q-1.62,0-3.29,3.18a32.42,32.42,0,0,0-2.74,8.17,46.28,46.28,0,0,0-1.07,9.74Q21.56,31,25.15,33.48Z"/><path class="cls-1" d="M33.8,48.74l3.73-19.48,3.34-1.44-3,12.9a39.33,39.33,0,0,1,5.8-9.35q2.88-3.2,5.52-3.2a2.76,2.76,0,0,1,2.11.86,3.23,3.23,0,0,1,.81,2.3,9.75,9.75,0,0,1-.39,2.29l-.35,1.48-1.05,4.29-.35,1.37A14.49,14.49,0,0,0,49.41,44a3.67,3.67,0,0,0,.39,1.81,1.15,1.15,0,0,0,1,.69q1.09,0,3.48-2.6l.56.49-.35.39a33.7,33.7,0,0,1-3,3.18,2.79,2.79,0,0,1-1.76.83,2.2,2.2,0,0,1-1.85-1.11,4.78,4.78,0,0,1-.76-2.76,19.56,19.56,0,0,1,.42-3.34L49,34.12a18.32,18.32,0,0,0,.28-2.46,1.52,1.52,0,0,0-.39-1.12,1.43,1.43,0,0,0-1.05-.39q-2.43,0-6,5.2A33.07,33.07,0,0,0,39,40.29a64.74,64.74,0,0,0-2.53,6.77l-.32.95Z"/><path class="cls-1" d="M54.86,46.14l2-2.32q1.55,3.66,4.92,3.66a4.29,4.29,0,0,0,3-1.14A3.5,3.5,0,0,0,66,43.68a3,3,0,0,0-.6-1.86,20.81,20.81,0,0,0-2.85-2.6,17.53,17.53,0,0,1-2.79-2.65A3.63,3.63,0,0,1,59,34.33a5.29,5.29,0,0,1,1-3.06,7.42,7.42,0,0,1,6-3.13,4.35,4.35,0,0,1,2.65.79,2.41,2.41,0,0,1,1.07,2,2.2,2.2,0,0,1-1.37,2.21,4,4,0,0,0-1.25-2.58,3.82,3.82,0,0,0-2.65-.93,3.71,3.71,0,0,0-2.51.93,2.76,2.76,0,0,0-1.07,2.13,3.91,3.91,0,0,0,1.83,2.92l2,1.65q3,2.36,3,4.82a6.19,6.19,0,0,1-1,3.43,7.49,7.49,0,0,1-2.81,2.55,7.83,7.83,0,0,1-3.74.95A6.38,6.38,0,0,1,54.86,46.14Z"/><path class="cls-1" d="M78.83,29.62,76.16,41.32a15,15,0,0,0-.42,2.74,3.24,3.24,0,0,0,.6,2,1.9,1.9,0,0,0,1.58.77,3,3,0,0,0,1.74-.54,18,18,0,0,0,2.41-2.27l.42-.42.53.53a22.06,22.06,0,0,1-3.46,3.57,4.57,4.57,0,0,1-2.72,1,3.45,3.45,0,0,1-2.69-1.11,4.16,4.16,0,0,1-1-2.9,20.6,20.6,0,0,1,.53-3.87L76,29.62H72.58l.25-1.2H76.2l2-9.49,3.38-1.34L79.08,28.42h5.7l-.25,1.2Z"/><path class="cls-1" d="M104.85,27.61l-3.3,12.87a14.59,14.59,0,0,0-.53,3.3,3.53,3.53,0,0,0,.46,1.83,1.32,1.32,0,0,0,1.13.77q1,0,3.38-2.5l.49.49-.39.46a31.85,31.85,0,0,1-2.87,3,2.89,2.89,0,0,1-1.74.86,2.37,2.37,0,0,1-2-1.18,4.63,4.63,0,0,1-.83-2.72,33.43,33.43,0,0,1,.84-5.1l.28-1.34a26.1,26.1,0,0,1-3.48,5.8q-3.66,4.64-7,4.64a3.84,3.84,0,0,1-3.16-1.44A6,6,0,0,1,85,43.5a15,15,0,0,1,1.88-6.93,19.15,19.15,0,0,1,4.68-6A8.58,8.58,0,0,1,97,28.28a4.66,4.66,0,0,1,4.15,2l.39-1.34Zm-4,4.5A4.07,4.07,0,0,0,99.38,30a3.72,3.72,0,0,0-2.3-.76,5.25,5.25,0,0,0-3.27,1.42,14.12,14.12,0,0,0-3.16,4,23,23,0,0,0-1.88,4.43,14.06,14.06,0,0,0-.76,4,5,5,0,0,0,.69,2.81,2.21,2.21,0,0,0,2,1A5.29,5.29,0,0,0,94,45.4a18.24,18.24,0,0,0,3.48-4.32,16.24,16.24,0,0,0,1.65-3.23q.6-1.62,1.34-4.5Z"/><path class="cls-1" d="M120,36.89l-.32,1.58h-8.58l.32-1.58Z"/><path class="cls-1" d="M139.65,48l-2.32.74,2.78-14.31.25-1.23a8.64,8.64,0,0,0,.21-1.69q0-1.55-1.23-1.55a4.59,4.59,0,0,0-2.81,1.56A22.79,22.79,0,0,0,133,36.05,39.59,39.59,0,0,0,131,39.71a37.82,37.82,0,0,0-1.58,3.74q-.72,2-1.39,4.55l-2.18.74,3.62-19.48,3.38-1.44-3.06,12.76a34.29,34.29,0,0,1,5.4-8.95q3-3.5,5.47-3.5,2.64,0,2.64,3a21.68,21.68,0,0,1-.53,3.62L141.59,40a50.25,50.25,0,0,1,5.77-9.23q2.36-2.69,4.68-2.69a2.68,2.68,0,0,1,2,.77,3.08,3.08,0,0,1,.74,2.21,19.71,19.71,0,0,1-.7,4L153,39.39l-.35,1.37a16.35,16.35,0,0,0-.49,3.23,3.67,3.67,0,0,0,.39,1.81,1.13,1.13,0,0,0,1,.69q1.13,0,3.52-2.6l.53.49-.32.39a31.75,31.75,0,0,1-3,3.18,2.85,2.85,0,0,1-1.78.83,2.2,2.2,0,0,1-1.85-1.11,4.78,4.78,0,0,1-.76-2.76,19.76,19.76,0,0,1,.46-3.34l1.3-7.28.21-1.27a9.07,9.07,0,0,0,.21-1.69,1.38,1.38,0,0,0-.39-1,1.43,1.43,0,0,0-1.05-.39,3.06,3.06,0,0,0-1.71.65,9.87,9.87,0,0,0-2,2,33.47,33.47,0,0,0-2.36,3.52,47.58,47.58,0,0,0-2.85,5.57A50.73,50.73,0,0,0,139.65,48Z"/><path class="cls-1" d="M166.58,27.82l-3.09,11.57a18.43,18.43,0,0,0-.77,4.57,3.78,3.78,0,0,0,.39,1.83,1.15,1.15,0,0,0,1,.7q1.09,0,3.48-2.6l.56.49-.35.39a33.7,33.7,0,0,1-3,3.18,2.79,2.79,0,0,1-1.76.83,2.2,2.2,0,0,1-1.85-1.11,4.78,4.78,0,0,1-.76-2.76,20.7,20.7,0,0,1,.42-3.34l2.21-12.3Zm1-13.78A2.06,2.06,0,0,1,169,17.56a2,2,0,0,1-1.44.6,2.17,2.17,0,0,1-2.07-2.07,2,2,0,0,1,.6-1.44A2,2,0,0,1,167.6,14Z"/><path class="cls-1" d="M176.64,29.62,174,41.32a15,15,0,0,0-.42,2.74,3.24,3.24,0,0,0,.6,2,1.9,1.9,0,0,0,1.58.77,3,3,0,0,0,1.74-.54,18,18,0,0,0,2.41-2.27l.42-.42.53.53a22.06,22.06,0,0,1-3.46,3.57,4.57,4.57,0,0,1-2.72,1,3.45,3.45,0,0,1-2.69-1.11,4.16,4.16,0,0,1-1-2.9,20.6,20.6,0,0,1,.53-3.87l2.29-11.29h-3.37l.25-1.2H174l2-9.49,3.38-1.34-2.46,10.83h5.7l-.25,1.2Z"/><path class="cls-1" d="M202.65,27.61l-3.3,12.87a14.59,14.59,0,0,0-.53,3.3,3.53,3.53,0,0,0,.46,1.83,1.32,1.32,0,0,0,1.13.77q1,0,3.38-2.5l.49.49-.39.46a31.85,31.85,0,0,1-2.87,3,2.89,2.89,0,0,1-1.74.86,2.37,2.37,0,0,1-2-1.18,4.63,4.63,0,0,1-.83-2.72,33.43,33.43,0,0,1,.84-5.1l.28-1.34a26.1,26.1,0,0,1-3.48,5.8q-3.66,4.64-7,4.64A3.84,3.84,0,0,1,184,47.37a6,6,0,0,1-1.16-3.87,15,15,0,0,1,1.88-6.93,19.15,19.15,0,0,1,4.68-6,8.58,8.58,0,0,1,5.43-2.34,4.66,4.66,0,0,1,4.15,2l.39-1.34Zm-4,4.5A4.07,4.07,0,0,0,197.19,30a3.72,3.72,0,0,0-2.3-.76,5.25,5.25,0,0,0-3.27,1.42,14.12,14.12,0,0,0-3.16,4,23,23,0,0,0-1.88,4.43,14.06,14.06,0,0,0-.76,4,5,5,0,0,0,.69,2.81,2.21,2.21,0,0,0,2,1,5.29,5.29,0,0,0,3.38-1.51,18.24,18.24,0,0,0,3.48-4.32A16.24,16.24,0,0,0,197,37.84q.6-1.62,1.34-4.5Z"/><path class="cls-1" d="M213.27,27.82l-3.09,11.57A18.43,18.43,0,0,0,209.4,44a3.78,3.78,0,0,0,.39,1.83,1.15,1.15,0,0,0,1,.7q1.09,0,3.48-2.6l.56.49-.35.39a33.7,33.7,0,0,1-3,3.18,2.79,2.79,0,0,1-1.76.83,2.2,2.2,0,0,1-1.85-1.11,4.78,4.78,0,0,1-.76-2.76,20.7,20.7,0,0,1,.42-3.34l2.21-12.3Zm1-13.78a2.06,2.06,0,0,1,1.44,3.52,2,2,0,0,1-1.44.6,2.17,2.17,0,0,1-2.07-2.07,2,2,0,0,1,.6-1.44A2,2,0,0,1,214.29,14Z"/></g></g></svg>